<svg width="35" height="28" viewBox="0 0 35 28" fill="none" xmlns="http://www.w3.org/2000/svg">
<path d="M1.25 5.14286H33.75C34.4404 5.14286 35 4.63121 35 4V1.14286C35 0.511643 34.4404 0 33.75 0H1.25C0.559609 0 0 0.511643 0 1.14286V4C0 4.63121 0.559609 5.14286 1.25 5.14286ZM1.25 16.5714H33.75C34.4404 16.5714 35 16.0598 35 15.4286V12.5714C35 11.9402 34.4404 11.4286 33.75 11.4286H1.25C0.559609 11.4286 0 11.9402 0 12.5714V15.4286C0 16.0598 0.559609 16.5714 1.25 16.5714ZM1.25 28H33.75C34.4404 28 35 27.4884 35 26.8571V24C35 23.3688 34.4404 22.8571 33.75 22.8571H1.25C0.559609 22.8571 0 23.3688 0 24V26.8571C0 27.4884 0.559609 28 1.25 28Z" fill="#FFD700"/>
</svg>
