<svg width="20" height="20" viewBox="0 0 20 20" fill="none" xmlns="http://www.w3.org/2000/svg">
<path d="M0.833333 0C1.05435 0 1.26631 0.065848 1.42259 0.183058C1.57887 0.300269 1.66667 0.45924 1.66667 0.625V2.5H18.3333V0.625C18.3333 0.45924 18.4211 0.300269 18.5774 0.183058C18.7337 0.065848 18.9457 0 19.1667 0C19.3877 0 19.5996 0.065848 19.7559 0.183058C19.9122 0.300269 20 0.45924 20 0.625V19.375C20 19.5408 19.9122 19.6997 19.7559 19.8169C19.5996 19.9342 19.3877 20 19.1667 20C18.9457 20 18.7337 19.9342 18.5774 19.8169C18.4211 19.6997 18.3333 19.5408 18.3333 19.375V18.75H1.66667V19.375C1.66667 19.5408 1.57887 19.6997 1.42259 19.8169C1.26631 19.9342 1.05435 20 0.833333 20C0.61232 20 0.400358 19.9342 0.244078 19.8169C0.0877975 19.6997 0 19.5408 0 19.375V0.625C0 0.45924 0.0877975 0.300269 0.244078 0.183058C0.400358 0.065848 0.61232 0 0.833333 0V0ZM1.66667 17.5H18.3333V13.75H1.66667V17.5ZM1.66667 12.5H18.3333V8.75H1.66667V12.5ZM1.66667 7.5H18.3333V3.75H1.66667V7.5Z" fill="#FFD700"/>
</svg>
